{
    "asset" : {
        "generator" : "Khronos glTF Blender I/O v3.5.0",
        "version" : "2.0"
    },
    "scene" : 0,
    "scenes" : [
        {
            "name" : "Scene",
            "nodes" : [
                0
            ]
        }
    ],
    "nodes" : [
        {
            "mesh" : 0,
            "name" : "pont",
            "rotation" : [
                0,
                0.9729594588279724,
                0,
                0.230976402759552
            ],
            "scale" : [
                0.050716597586870193,
                0.0507165901362896,
                0.050716597586870193
            ]
        }
    ],
    "materials" : [
        {
            "doubleSided" : true,
            "name" : "Material.001",
            "pbrMetallicRoughness" : {
                "baseColorFactor" : [
                    0.35153263807296753,
                    0.33245155215263367,
                    0.29177066683769226,
                    1
                ],
                "metallicFactor" : 0,
                "roughnessFactor" : 0.5
            }
        }
    ],
    "meshes" : [
        {
            "name" : "Cube.018",
            "primitives" : [
                {
                    "attributes" : {
                        "POSITION" : 0,
                        "TEXCOORD_0" : 1,
                        "NORMAL" : 2
                    },
                    "indices" : 3,
                    "material" : 0
                }
            ]
        }
    ],
    "accessors" : [
        {
            "bufferView" : 0,
            "componentType" : 5126,
            "count" : 3473,
            "max" : [
                4.758629322052002,
                3.278496742248535,
                22.53438949584961
            ],
            "min" : [
                -8.374730110168457,
                -7.774529457092285,
                -19.716285705566406
            ],
            "type" : "VEC3"
        },
        {
            "bufferView" : 1,
            "componentType" : 5126,
            "count" : 3473,
            "type" : "VEC2"
        },
        {
            "bufferView" : 2,
            "componentType" : 5126,
            "count" : 3473,
            "type" : "VEC3"
        },
        {
            "bufferView" : 3,
            "componentType" : 5123,
            "count" : 5892,
            "type" : "SCALAR"
        }
    ],
    "bufferViews" : [
        {
            "buffer" : 0,
            "byteLength" : 41676,
            "byteOffset" : 0,
            "target" : 34962
        },
        {
            "buffer" : 0,
            "byteLength" : 27784,
            "byteOffset" : 41676,
            "target" : 34962
        },
        {
            "buffer" : 0,
            "byteLength" : 41676,
            "byteOffset" : 69460,
            "target" : 34962
        },
        {
            "buffer" : 0,
            "byteLength" : 11784,
            "byteOffset" : 111136,
            "target" : 34963
        }
    ],
    "buffers" : [
        {
            "byteLength" : 122920,
            "uri" : "data:application/octet-stream;base64,"
        }
    ]
}
