{
    "asset" : {
        "generator" : "Khronos glTF Blender I/O v3.5.0",
        "version" : "2.0"
    },
    "scene" : 0,
    "scenes" : [
        {
            "name" : "Scene",
            "nodes" : [
                0
            ]
        }
    ],
    "nodes" : [
        {
            "mesh" : 0,
            "name" : "pont",
            "rotation" : [
                0,
                0.9729594588279724,
                0,
                0.230976402759552
            ],
            "scale" : [
                0.050716597586870193,
                0.0507165901362896,
                0.050716597586870193
            ],
            "translation" : [
                0.8013362884521484,
                -0.24266965687274933,
                -0.7820674180984497
            ]
        }
    ],
    "materials" : [
        {
            "doubleSided" : true,
            "name" : "Material.001",
            "pbrMetallicRoughness" : {
                "baseColorFactor" : [
                    0.35153263807296753,
                    0.33245155215263367,
                    0.29177066683769226,
                    1
                ],
                "metallicFactor" : 0,
                "roughnessFactor" : 0.5
            }
        }
    ],
    "meshes" : [
        {
            "name" : "Cube.018",
            "primitives" : [
                {
                    "attributes" : {
                        "POSITION" : 0,
                        "TEXCOORD_0" : 1,
                        "NORMAL" : 2
                    },
                    "indices" : 3,
                    "material" : 0
                }
            ]
        }
    ],
    "accessors" : [
        {
            "bufferView" : 0,
            "componentType" : 5126,
            "count" : 3471,
            "max" : [
                11.94216537475586,
                8.063314437866211,
                1.6577880382537842
            ],
            "min" : [
                -1.19119393825531,
                -2.9897117614746094,
                -40.59288787841797
            ],
            "type" : "VEC3"
        },
        {
            "bufferView" : 1,
            "componentType" : 5126,
            "count" : 3471,
            "type" : "VEC2"
        },
        {
            "bufferView" : 2,
            "componentType" : 5126,
            "count" : 3471,
            "type" : "VEC3"
        },
        {
            "bufferView" : 3,
            "componentType" : 5123,
            "count" : 5892,
            "type" : "SCALAR"
        }
    ],
    "bufferViews" : [
        {
            "buffer" : 0,
            "byteLength" : 41652,
            "byteOffset" : 0,
            "target" : 34962
        },
        {
            "buffer" : 0,
            "byteLength" : 27768,
            "byteOffset" : 41652,
            "target" : 34962
        },
        {
            "buffer" : 0,
            "byteLength" : 41652,
            "byteOffset" : 69420,
            "target" : 34962
        },
        {
            "buffer" : 0,
            "byteLength" : 11784,
            "byteOffset" : 111072,
            "target" : 34963
        }
    ],
    "buffers" : [
        {
            "byteLength" : 122856,
            "uri" : "data:application/octet-stream;base64,"
        }
    ]
}
