{
    "asset" : {
        "generator" : "Khronos glTF Blender I/O v3.5.0",
        "version" : "2.0"
    },
    "scene" : 0,
    "scenes" : [
        {
            "name" : "Scene",
            "nodes" : [
                0
            ]
        }
    ],
    "nodes" : [
        {
            "mesh" : 0,
            "name" : "pont"
        }
    ],
    "materials" : [
        {
            "doubleSided" : true,
            "name" : "Material.001",
            "pbrMetallicRoughness" : {
                "baseColorFactor" : [
                    0.3515322804450989,
                    0.3324512541294098,
                    0.29177069664001465,
                    1
                ],
                "metallicFactor" : 0,
                "roughnessFactor" : 0.5
            }
        }
    ],
    "meshes" : [
        {
            "name" : "Cube.018",
            "primitives" : [
                {
                    "attributes" : {
                        "POSITION" : 0,
                        "TEXCOORD_0" : 1,
                        "NORMAL" : 2
                    },
                    "indices" : 3,
                    "material" : 0
                }
            ]
        }
    ],
    "accessors" : [
        {
            "bufferView" : 0,
            "componentType" : 5126,
            "count" : 3490,
            "max" : [
                10.969486236572266,
                0.14951595664024353,
                5.100812911987305
            ],
            "min" : [
                8.829499244689941,
                -0.4110558032989502,
                3.7215330600738525
            ],
            "type" : "VEC3"
        },
        {
            "bufferView" : 1,
            "componentType" : 5126,
            "count" : 3490,
            "type" : "VEC2"
        },
        {
            "bufferView" : 2,
            "componentType" : 5126,
            "count" : 3490,
            "type" : "VEC3"
        },
        {
            "bufferView" : 3,
            "componentType" : 5123,
            "count" : 5892,
            "type" : "SCALAR"
        }
    ],
    "bufferViews" : [
        {
            "buffer" : 0,
            "byteLength" : 41880,
            "byteOffset" : 0,
            "target" : 34962
        },
        {
            "buffer" : 0,
            "byteLength" : 27920,
            "byteOffset" : 41880,
            "target" : 34962
        },
        {
            "buffer" : 0,
            "byteLength" : 41880,
            "byteOffset" : 69800,
            "target" : 34962
        },
        {
            "buffer" : 0,
            "byteLength" : 11784,
            "byteOffset" : 111680,
            "target" : 34963
        }
    ],
    "buffers" : [
        {
            "byteLength" : 123464,
            "uri" : "data:application/octet-stream;base64,"
        }
    ]
}
